<svg xmlns="http://www.w3.org/2000/svg" xmlns:svg="http://www.w3.org/2000/svg" id="svg1821" x="0" y="0" version="1.1" viewBox="0 0 341.8 341.8" style="enable-background:new 0 0 341.8 341.8" xml:space="preserve"><style id="style1801" type="text/css">.st0{fill:#ff4500}.st1{fill:#fff}.st2{display:none}.st3{display:inline;fill:none;stroke:#d8d8d8;stroke-width:.5;stroke-miterlimit:10}</style><g id="Artwork" transform="matrix(1.9988304,0,0,1.9988304,-170.7001,-170.7001)"><g id="g1807"><circle id="circle1803" cx="170.9" cy="170.9" r="85.5" class="st0"/><path id="path1805" d="m 227.9,170.9 c 0,-6.9 -5.6,-12.5 -12.5,-12.5 -3.4,0 -6.4,1.3 -8.6,3.5 -8.5,-6.1 -20.3,-10.1 -33.3,-10.6 l 5.7,-26.7 18.5,3.9 c 0.2,4.7 4.1,8.5 8.9,8.5 4.9,0 8.9,-4 8.9,-8.9 0,-4.9 -4,-8.9 -8.9,-8.9 -3.5,0 -6.5,2 -7.9,5 L 178,119.8 c -0.6,-0.1 -1.2,0 -1.7,0.3 -0.5,0.3 -0.8,0.8 -1,1.4 l -6.3,29.8 c -13.3,0.4 -25.2,4.3 -33.8,10.6 -2.2,-2.1 -5.3,-3.5 -8.6,-3.5 -6.9,0 -12.5,5.6 -12.5,12.5 0,5.1 3,9.4 7.4,11.4 -0.2,1.2 -0.3,2.5 -0.3,3.8 0,19.2 22.3,34.7 49.9,34.7 27.6,0 49.9,-15.5 49.9,-34.7 0,-1.3 -0.1,-2.5 -0.3,-3.7 4.1,-2 7.2,-6.4 7.2,-11.5 z m -85.5,8.9 c 0,-4.9 4,-8.9 8.9,-8.9 4.9,0 8.9,4 8.9,8.9 0,4.9 -4,8.9 -8.9,8.9 -4.9,0 -8.9,-4 -8.9,-8.9 z m 49.7,23.5 c -6.1,6.1 -17.7,6.5 -21.1,6.5 -3.4,0 -15.1,-0.5 -21.1,-6.5 -0.9,-0.9 -0.9,-2.4 0,-3.3 0.9,-0.9 2.4,-0.9 3.3,0 3.8,3.8 12,5.2 17.9,5.2 5.9,0 14,-1.4 17.9,-5.2 0.9,-0.9 2.4,-0.9 3.3,0 0.7,1 0.7,2.4 -0.2,3.3 z m -1.6,-14.6 c -4.9,0 -8.9,-4 -8.9,-8.9 0,-4.9 4,-8.9 8.9,-8.9 4.9,0 8.9,4 8.9,8.9 0,4.9 -4,8.9 -8.9,8.9 z" class="st1"/></g></g><g id="Spacing_Guide" class="st2"><rect id="rect1810" width="85.4" height="85.4" class="st3"/><rect id="rect1812" width="341.8" height="85.4" class="st3"/><rect id="rect1814" width="341.8" height="85.4" y="256.3" class="st3"/><rect id="rect1816" width="85.4" height="341.8" class="st3"/><rect id="rect1818" width="85.4" height="341.8" x="256.4" class="st3"/></g></svg>