<?xml version="1.0" encoding="UTF-8"?>
<svg fill="currentColor" version="1.1" viewBox="0 0 15 15" xmlns="http://www.w3.org/2000/svg"><path d="m8.6591 2.2841c-.32007 0-.57955-.25947-.57955-.57955 0-.32007.25947-.57955.57955-.57955h4.6364c.32002 0 .57954.25947.57954.57955v4.6364c0 .32007-.25952.57955-.57954.57955s-.57955-.25947-.57955-.57955v-3.2372l-5.9652 5.9652c-.22632.22634-.59327.22634-.81959 0-.22634-.22632-.22634-.59327 0-.81959l5.9652-5.9652zm-7.5341 1.7386c0-.32007.25947-.57955.57955-.57955h3.4773c.32007 0 .57955.25947.57955.57955 0 .32007-.25947.57955-.57955.57955h-2.8977v8.1136h8.1136v-2.8977c0-.32007.25952-.57955.57955-.57955.32002 0 .57954.25947.57954.57955v3.4773c0 .32002-.25952.57954-.57955.57954h-9.2727c-.32007 0-.57955-.25952-.57955-.57954z" clip-rule="evenodd" fill="currentColor" fill-rule="evenodd" style="fill:#ffffff;stroke-width:1.1591"/></svg>
