<?xml version="1.0" encoding="UTF-8" standalone="no"?>
<svg
   id="svg6"
   version="1.1"
   viewBox="0 0 36 36"
   xmlns="http://www.w3.org/2000/svg"
   xmlns:svg="http://www.w3.org/2000/svg">
  <defs
     id="defs1" />
  <path
     id="path1"
     style="fill:#ff2a2a"
     transform="matrix(6.3537396,0,0,6.3537396,-53.142989,-62.213006)"
     d="m 12.141352,15.077965 -1.888652,0 A 0.81780994,0.81780994 30.000005 0 1 9.5444561,14.66906 L 8.6001304,13.033439 a 0.81781019,0.81781019 90.000007 0 1 1e-7,-0.81781 l 0.9443257,-1.63562 a 0.81781016,0.81781016 150 0 1 0.7082448,-0.408905 h 1.888651 a 0.81781008,0.81781008 30 0 1 0.708244,0.408905 l 0.944327,1.635621 a 0.81780996,0.81780996 90.000005 0 1 -10e-7,0.81781 l -0.944325,1.63562 a 0.81781025,0.81781025 150 0 1 -0.708245,0.408905 z" />
  <path
     id="path4"
     d="M 15.356687,8.9876481 V 18.93017 a 2.6422464,2.596255 0 0 0 2.642247,2.596255 2.6443805,2.598352 0 0 0 2.64438,-2.598352 V 8.9897451 a 2.6443805,2.598352 0 0 0 -2.64438,-2.5983522 2.6422464,2.596255 0 0 0 -2.642247,2.5962552 z m 0,17.9366279 v 0.08807 a 2.6422464,2.596255 0 0 0 2.642247,2.59626 2.6443805,2.598352 0 0 0 2.64438,-2.598352 v -0.08389 a 2.6443805,2.598352 0 0 0 -2.64438,-2.598346 2.6422464,2.596255 0 0 0 -2.642247,2.596255 z"
     style="stroke-width:1.0832" />
</svg>
