<?xml version="1.0" encoding="UTF-8" standalone="no"?>
<svg
   id="svg6"
   version="1.1"
   viewBox="0 0 36 36"
   xmlns="http://www.w3.org/2000/svg"
   xmlns:svg="http://www.w3.org/2000/svg">
  <defs
     id="defs1" />
  <circle
     style="fill:#9956cc;fill-opacity:1;stroke-linejoin:round;stroke-miterlimit:14.6"
     id="path1296"
     cx="18"
     cy="18"
     r="18" />
  <path
     id="path4"
     d="M 20.418945,9.3041708 V 18.561984 A 2.418945,2.418945 135 0 1 18,20.980929 2.418945,2.418945 45 0 1 15.581055,18.561984 l 0,-9.2578132 A 2.418945,2.418945 135 0 1 18,6.8852258 a 2.418945,2.418945 45 0 1 2.418945,2.418945 z m 0,17.3115792 v 0.08008 A 2.418945,2.418945 135 0 1 18,29.114774 2.418945,2.418945 45 0 1 15.581055,26.695829 V 26.61575 A 2.418945,2.418945 135 0 1 18,24.196805 2.418945,2.418945 45 0 1 20.418945,26.61575 Z"
     style="fill:snow" />
</svg>
