<?xml version="1.0" encoding="UTF-8" standalone="no"?>
<svg
   id="svg6"
   version="1.1"
   viewBox="0 0 36 36"
   xmlns="http://www.w3.org/2000/svg"
   xmlns:svg="http://www.w3.org/2000/svg">
  <defs
     id="defs1" />
  <circle
     style="fill:#87cefa;fill-opacity:1;stroke-linejoin:round;stroke-miterlimit:14.6"
     id="path1296"
     cx="18"
     cy="18"
     r="18" />
  <path
     id="path4"
     d="M 20.418945,26.695829 V 17.438016 A 2.418945,2.418945 45 0 0 18,15.019071 2.418945,2.418945 135 0 0 15.581055,17.438016 v 9.257813 A 2.418945,2.418945 45 0 0 18,29.114774 2.418945,2.418945 135 0 0 20.418945,26.695829 Z m 0,-17.311579 V 9.3041708 A 2.418945,2.418945 45 0 0 18,6.8852258 2.418945,2.418945 135 0 0 15.581055,9.3041708 V 9.38425 A 2.418945,2.418945 45 0 0 18,11.803195 2.418945,2.418945 135 0 0 20.418945,9.38425 Z"
     style="fill:snow" />
</svg>
