<?xml version="1.0" encoding="UTF-8" standalone="no"?>
<svg
   id="svg6"
   version="1.1"
   viewBox="0 0 36 36"
   xmlns="http://www.w3.org/2000/svg"
   xmlns:svg="http://www.w3.org/2000/svg">
  <defs
     id="defs1" />
  <path
     id="path2"
     fill="#ffcc4d"
     d="M 1.7888544,32.422291 16.211146,3.5777088 a 2,2 0 0 1 3.577708,0 L 34.211146,32.422291 A 2.472136,2.472136 121.71747 0 1 32,36 H 4 A 2.472136,2.472136 58.282526 0 1 1.7888544,32.422291 Z"
     transform="translate(0,-1.236068)" />
  <path
     id="path4"
     d="m 15.582031,13.295254 v 9.259765 A 2.417969,2.417969 45 0 0 18,24.972988 2.419922,2.419922 135 0 0 20.419922,22.553066 V 13.297207 A 2.419922,2.419922 45 0 0 18,10.877285 2.417969,2.417969 135 0 0 15.582031,13.295254 Z m 0,16.704911 v 0.08203 A 2.417969,2.417969 45 0 0 18,32.500165 2.419922,2.419922 135 0 0 20.419922,30.080243 v -0.07813 A 2.419922,2.419922 45 0 0 18,27.582196 2.417969,2.417969 135 0 0 15.582031,30.000165 Z"
     transform="translate(0,-1.236068)" />
</svg>
