<?xml version="1.0" encoding="UTF-8" standalone="no"?>
<svg
   id="svg6"
   version="1.1"
   viewBox="0 0 36 36"
   xmlns="http://www.w3.org/2000/svg"
   xmlns:svg="http://www.w3.org/2000/svg">
  <defs
     id="defs1" />
  <path
     id="path2"
     fill="#ffcc4d"
     d="M 0.28519842,32.158493 16.045222,1.1870901 a 2.1855089,2.1474676 0 0 1 3.909556,0 L 35.714802,32.158493 A 2.7014376,2.654416 0 0 1 33.298562,36 H 2.7014376 A 2.7014376,2.654416 0 0 1 0.28519842,32.158493 Z"
     style="stroke-width:1.0832" />
  <path
     id="path4"
     d="m 15.357753,11.621147 v 9.942522 A 2.6422464,2.596255 0 0 0 18,24.159924 2.6443805,2.598352 0 0 0 20.64438,21.561572 V 11.623244 A 2.6443805,2.598352 0 0 0 18,9.0248918 2.6422464,2.596255 0 0 0 15.357753,11.621147 Z m 0,17.936628 v 0.08807 A 2.6422464,2.596255 0 0 0 18,32.242105 2.6443805,2.598352 0 0 0 20.64438,29.643753 v -0.08389 A 2.6443805,2.598352 0 0 0 18,26.961517 2.6422464,2.596255 0 0 0 15.357753,29.557772 Z"
     style="stroke-width:1.0832" />
</svg>
